<svg width="31" height="31" viewBox="0 0 31 31" fill="none" xmlns="http://www.w3.org/2000/svg">
<path d="M15.0483 0C23.3598 0 30.0968 6.73791 30.0968 15.0484C30.0968 23.3599 23.3598 30.0968 15.0483 30.0968C6.73687 30.0968 0 23.3598 0 15.0484C0 6.73791 6.73698 0 15.0483 0Z" fill="white"/>
<path d="M16.8806 10.3598H18.8199V7.49498H16.5401V7.50531C13.7778 7.60314 13.2116 9.15592 13.1617 10.7868H13.1561V12.2174H11.2751V15.0229H13.1561V22.5433H15.9908V15.0229H18.313L18.7616 12.2174H15.9918V11.3531C15.9918 10.8019 16.3585 10.3598 16.8806 10.3598Z" fill="black"/>
<path d="M15.0479 0.0927734C23.3078 0.0927734 30.0039 6.78978 30.0039 15.0488C30.0037 23.3086 23.3077 30.0039 15.0479 30.0039C6.78823 30.0037 0.0929899 23.3084 0.0927734 15.0488C0.0927734 6.78994 6.78821 0.0930286 15.0479 0.0927734ZM15.8984 12.3105H18.6523L18.2334 14.9297H15.8975V22.4502H13.249V14.9297H11.3682V12.3105H13.249V10.8799H13.252L13.2549 10.79C13.2796 9.98177 13.4326 9.21038 13.9062 8.62988C14.3771 8.05299 15.1796 7.64701 16.543 7.59863L16.6338 7.5957V7.58789H18.7266V10.2666H16.8809C16.296 10.2666 15.8984 10.763 15.8984 11.3535V12.3105ZM16.085 11.3535C16.085 10.8417 16.4216 10.4531 16.8809 10.4531H18.9131V7.40137H16.4473V7.41602C15.1014 7.47998 14.2659 7.89482 13.7617 8.5127C13.2682 9.11767 13.107 9.90142 13.0732 10.6934H13.0625V12.124H11.1816V15.1162H13.0625V22.6367H16.084V15.1162H18.3926L18.4053 15.0381L18.8535 12.2324L18.8711 12.124H16.085V11.3535Z" stroke="white" stroke-width="0.186426"/>
</svg>
