<svg width="31" height="31" viewBox="0 0 31 31" fill="none" xmlns="http://www.w3.org/2000/svg">
<path d="M15.0488 0.0322266C23.3405 0.032472 30.0645 6.7571 30.0645 15.0488C30.0642 23.3403 23.3403 30.0642 15.0488 30.0645C6.7571 30.0645 0.032472 23.3405 0.0322266 15.0488C0.0322266 6.75695 6.75695 0.0322266 15.0488 0.0322266ZM15.0488 6.375C12.702 6.375 12.4065 6.38471 11.4844 6.42676C10.5616 6.46891 9.93024 6.61616 9.37695 6.83105C8.86858 7.02238 8.40191 7.3084 8.00195 7.67383L7.83496 7.83496C7.39201 8.26965 7.04967 8.79611 6.83105 9.37695C6.61614 9.93026 6.46868 10.5616 6.42676 11.4844C6.38448 12.4065 6.375 12.702 6.375 15.0488C6.375 17.395 6.38524 17.6902 6.42773 18.6123C6.46443 19.4197 6.58119 20.0047 6.75391 20.5088L6.83105 20.7197C7.02237 21.2281 7.30859 21.6948 7.67383 22.0947L7.83496 22.2617C8.21555 22.6494 8.66613 22.9596 9.16211 23.1777L9.37695 23.2656C9.93007 23.4806 10.5617 23.6278 11.4844 23.6699C12.4068 23.712 12.7018 23.7217 15.0488 23.7217C17.3952 23.7217 17.6904 23.712 18.6123 23.6699C19.5348 23.6278 20.1667 23.4805 20.7197 23.2656C21.8889 22.8134 22.8134 21.8889 23.2656 20.7197C23.4805 20.1665 23.628 19.535 23.6699 18.6123C23.7122 17.6902 23.7217 17.3952 23.7217 15.0488C23.7217 12.702 23.712 12.4066 23.6699 11.4844C23.6278 10.5616 23.4808 9.93025 23.2656 9.37695C23.0745 8.86851 22.7882 8.40204 22.4229 8.00195L22.2617 7.83496C21.8268 7.39207 21.3005 7.04964 20.7197 6.83105C20.1664 6.61638 19.5351 6.46966 18.6123 6.42773C17.6902 6.38546 17.3952 6.375 15.0488 6.375ZM15.0488 7.99707C17.3555 7.99707 17.6285 8.00535 18.5391 8.04688C19.3778 8.08508 19.8316 8.22578 20.1328 8.34277H20.1338C20.4581 8.46246 20.7552 8.64445 21.0088 8.87793L21.1152 8.98145C21.3987 9.25671 21.6171 9.59242 21.7539 9.96289L21.7549 9.96387C21.8721 10.2651 22.0116 10.7198 22.0498 11.5586C22.0913 12.4687 22.0996 12.7418 22.0996 15.0488C22.0996 17.3557 22.0913 17.6285 22.0498 18.5391C22.0114 19.3775 21.8719 19.8316 21.7549 20.1328H21.7539C21.4665 20.8779 20.8779 21.4675 20.1328 21.7549C19.8316 21.8721 19.3769 22.0116 18.5381 22.0498C17.6283 22.0913 17.3551 22.1006 15.0479 22.1006C12.7408 22.1006 12.468 22.0913 11.5576 22.0498C10.7192 22.0116 10.2651 21.8721 9.96387 21.7549H9.96289C9.59208 21.6181 9.2568 21.3997 8.98145 21.1162L8.98047 21.1152C8.69709 20.84 8.47977 20.5045 8.34277 20.1338L8.3418 20.1328C8.22482 19.8316 8.08505 19.3776 8.04688 18.5391C8.00535 17.6285 7.99609 17.3557 7.99609 15.0488C7.99609 12.7418 8.00536 12.4687 8.04688 11.5586C8.08506 10.7198 8.2248 10.2651 8.3418 9.96387H8.34277C8.46266 9.63933 8.64432 9.34163 8.87793 9.08789L8.98145 8.98145C9.25648 8.69802 9.59219 8.47958 9.96289 8.34277H9.96387C10.2648 8.22579 10.719 8.08531 11.5576 8.04688C12.468 8.00535 12.7415 7.99707 15.0488 7.99707ZM15.0488 10.5791C12.5803 10.5791 10.5791 12.5803 10.5791 15.0488C10.5793 17.5172 12.5804 19.5176 15.0488 19.5176C17.5168 19.5173 19.5173 17.517 19.5176 15.0488C19.5176 12.5804 17.517 10.5793 15.0488 10.5791ZM15.0488 12.2002C16.6216 12.2004 17.8965 13.476 17.8965 15.0488C17.8962 16.6214 16.6214 17.8962 15.0488 17.8965C13.476 17.8965 12.2004 16.6216 12.2002 15.0488C12.2002 13.4759 13.4759 12.2002 15.0488 12.2002ZM19.6611 9.36621C19.0707 9.36621 18.5919 9.84514 18.5918 10.4355C18.5918 11.0261 19.0706 11.5049 19.6611 11.5049C20.2516 11.5048 20.7302 11.026 20.7305 10.4355C20.7303 9.84519 20.2515 9.36629 19.6611 9.36621Z" fill="white" stroke="white" stroke-width="0.0645931"/>
</svg>
