<svg width="31" height="31" viewBox="0 0 31 31" fill="none" xmlns="http://www.w3.org/2000/svg">
<path fill-rule="evenodd" clip-rule="evenodd" d="M22.5726 22.5585H19.4547V17.679C19.4547 16.5156 19.434 15.0192 17.8342 15.0192C16.2118 15.0192 15.9644 16.287 15.9644 17.5963V22.5585H12.8494V12.525H15.8384V13.8972H15.8817C16.2974 13.1081 17.315 12.2757 18.8321 12.2757C21.9894 12.2757 22.5726 14.3533 22.5726 17.0555V22.5585ZM9.33375 11.1546C8.3321 11.1546 7.52419 10.3439 7.52419 9.34598C7.52419 8.34809 8.3321 7.53735 9.33375 7.53735C10.3307 7.53735 11.1405 8.34809 11.1405 9.34598C11.1405 10.3439 10.3307 11.1546 9.33375 11.1546ZM10.8931 22.5585H7.77154V12.525H10.8931V22.5585ZM15.0484 0C6.73697 0 0 6.73697 0 15.0484C0 23.3588 6.73697 30.0968 15.0484 30.0968C23.3598 30.0968 30.0968 23.3588 30.0968 15.0484C30.0968 6.73697 23.3598 0 15.0484 0Z" fill="white"/>
</svg>
