<svg width="31" height="31" viewBox="0 0 31 31" fill="none" xmlns="http://www.w3.org/2000/svg">
<path d="M15.2763 0C6.83971 0 0 6.83971 0 15.2763C0 23.7128 6.83971 30.5525 15.2763 30.5525C23.7128 30.5525 30.5525 23.7128 30.5525 15.2763C30.5525 6.83971 23.7128 0 15.2763 0Z" fill="white"/>
<path d="M16.9475 13.8938L23.4871 6.29208H21.9374L16.2591 12.8926L11.7238 6.29208H6.49295L13.3511 16.2732L6.49295 24.2448H8.04271L14.0392 17.2744L18.8287 24.2448H24.0596L16.9471 13.8938H16.9475ZM8.6011 7.45873H10.9814L21.9381 23.1312H19.5578L8.6011 7.45873Z" fill="black"/>
<path d="M15.2764 0.0126953C23.706 0.0127494 30.54 6.84672 30.54 15.2764C30.54 23.706 23.706 30.54 15.2764 30.54C6.84672 30.54 0.0127494 23.706 0.0126953 15.2764C0.0126953 6.84668 6.84668 0.0126953 15.2764 0.0126953ZM21.9277 6.28418L16.2598 12.8721L11.7344 6.28516L11.7236 6.29199L11.7422 6.2793H6.46973L6.48242 6.29883L13.335 16.2715L6.4834 24.2363L6.46582 24.2568H8.04297V24.2637L8.05176 24.2529L14.0381 17.2939L18.8184 24.252L18.8105 24.2568H24.083L24.0703 24.2373L16.9629 13.8945L23.4961 6.2998L23.5146 6.2793H21.9375V6.27344L21.9277 6.28418ZM11.7178 6.30469L16.249 12.8994L16.2578 12.9131L16.2686 12.9004L21.9434 6.30469H23.46L16.9414 13.8818H16.9238L16.9365 13.9004L24.0361 24.2324H18.8359L14.0498 17.2676L14.04 17.2539L14.0293 17.2666L8.03613 24.2324H6.51953L13.3604 16.2812L13.3672 16.2744L13.3613 16.2666L6.5166 6.30469H11.7178ZM8.59082 7.46582L19.5469 23.1377L19.54 23.1436H21.9619L21.9482 23.124L10.9912 7.45117L10.999 7.44629H8.57715L8.59082 7.46582ZM10.9746 7.4707L21.9141 23.1191H19.5654L8.625 7.4707H10.9746Z" stroke="white" stroke-width="0.0249002"/>
</svg>
